<svg width="108.8" height="91.8" viewBox="0 0 108.8 91.8" xmlns="http://www.w3.org/2000/svg">
    <g id="svgGroup" stroke-linecap="round" fill-rule="evenodd" font-size="9pt" stroke="#808080"
        stroke-width="0.25mm" fill="#808080" style="stroke:#808080;stroke-width:0.25mm;fill:#808080">
        <path
            d="M 81.4 84.6 L 81.4 91.8 L 59 91.8 L 59 4.6 L 81.4 4.6 L 81.4 11.8 L 67.6 11.8 L 67.6 84.6 L 81.4 84.6 Z M 86.4 91.8 L 86.4 84.6 L 100.2 84.6 L 100.2 11.8 L 86.4 11.8 L 86.4 4.6 L 108.8 4.6 L 108.8 91.8 L 86.4 91.8 Z M 18.3 0 L 28.1 0 L 26.1 19.2 L 45.3 13.8 L 46.7 23 L 28.3 24.5 L 40.2 40.3 L 31.6 45 L 23.1 27.5 L 15.4 45 L 6.5 40.3 L 18.2 24.5 L 0 23 L 1.4 13.8 L 20.4 19.2 L 18.3 0 Z"
            vector-effect="non-scaling-stroke" />
    </g>
</svg>